<svg id="Layer_1" data-name="Layer 1" xmlns="http://www.w3.org/2000/svg" viewBox="0 0 841.89 595.28"><defs><style>.cls-1{fill:#f8f8f8;}</style></defs><path class="cls-1" d="M398.76,35.83H260.62v317.3c4.5.77-12.12,179.68,189.33,192.9,8.15,1.24,187.87-9.16,191.44-191.85H503.6c.06,2.38,5.43,53.52-52.74,54.51-2.07-.37-52.22.3-53.5-57.66Z"/><path class="cls-1" d="M418.72,279.4H611v53.41H500.59s-9.06-26.18-32-30.72c0,0-18.12-3.49-23.69.35,0,0-16,4.19-26.13,15.71Z"/><rect class="cls-1" x="416.59" y="211.03" width="149.56" height="53.41"/><path class="cls-1" d="M416.59,161.89h65.55c1.45,1.07,29.58-.95,37,10.36v23.82H416.59Z"/></svg>