<svg id="Layer_1" data-name="Layer 1" xmlns="http://www.w3.org/2000/svg" viewBox="0 0 841.89 595.28"><defs><style>.cls-1,.cls-2{fill:#bed85b;}.cls-2{stroke:#bed85b;stroke-miterlimit:10;}</style></defs><polygon class="cls-1" points="598.51 365.51 614.22 402.12 229.65 399.56 245.34 363 598.51 365.51"/><polygon class="cls-1" points="661.38 406.73 682.73 443.35 160.59 440.81 181.89 404.23 661.38 406.73"/><polygon class="cls-1" points="743.31 449.21 771.94 485.84 70.96 483.28 99.56 446.71 743.31 449.21"/><polygon class="cls-1" points="247.94 114.44 247.94 358 369.29 358 369.29 164.26 473.61 164.26 473.61 358 595.93 358 595.93 114.44 247.94 114.44"/><line class="cls-2" x1="6.08" y1="482.69" x2="247.93" y2="114.44"/><line class="cls-2" x1="836.65" y1="485.24" x2="595.93" y2="114.44"/><polygon class="cls-1" points="420.01 165.65 420.01 315.45 471.68 355.36 471.68 165.65 420.01 165.65"/><line class="cls-2" x1="6.08" y1="482.69" x2="71.67" y2="482.69"/><line class="cls-2" x1="768.37" y1="485.24" x2="836.28" y2="485.24"/></svg>