<svg id="Layer_1" data-name="Layer 1" xmlns="http://www.w3.org/2000/svg" viewBox="0 0 782.75 782.75"><defs><style>.cls-1{fill:#bed95b;}.cls-2{fill:#d93d86;}</style></defs><circle class="cls-1" cx="391.38" cy="391.38" r="391.38"/><path class="cls-2" d="M580.13,65.69,425.2,425.2,270.27,65.69S335.86,33.82,425.2,33.82C512,33.82,580.13,65.69,580.13,65.69Z" transform="translate(-33.82 -33.82)"/><path class="cls-2" d="M65.69,270.27,425.2,425.2,65.69,580.13S33.82,514.53,33.82,425.2C33.82,338.36,65.69,270.27,65.69,270.27Z" transform="translate(-33.82 -33.82)"/><path class="cls-2" d="M270.27,784.7,425.2,425.2,580.13,784.7s-65.6,31.87-154.93,31.87C338.36,816.57,270.27,784.7,270.27,784.7Z" transform="translate(-33.82 -33.82)"/><path class="cls-2" d="M784.7,580.13,425.2,425.2,784.7,270.27s31.87,65.59,31.87,154.93C816.57,512,784.7,580.13,784.7,580.13Z" transform="translate(-33.82 -33.82)"/></svg>